<svg xmlns="http://www.w3.org/2000/svg" viewBox="0 0 45.62 13.67"><defs><style>.cls-1,.cls-2{fill:#fefefe;}.cls-2{fill-rule:evenodd;}</style></defs><g id="Capa_2" data-name="Capa 2"><g id="Capa_1-2" data-name="Capa 1"><path class="cls-1" d="M39.42,6.38l2.16-2.55h2L41.12,6.56l2.54,3.62h-2L39.85,7.6l-.45.49v2.09H37.67V1.63H39.4V6.38ZM37,3.83l-1.68,6.35H33.42L32.27,5.69h0l-1.15,4.49H29.28L27.59,3.83h1.74l1,4.71h0l1.13-4.71h1.66l1.13,4.71h0l1-4.71ZM23.3,10.29a2.19,2.19,0,0,1-1.52-.54,1.8,1.8,0,0,1-.61-1.39A1.62,1.62,0,0,1,21.82,7a3.26,3.26,0,0,1,1.83-.56l1.6-.1V5.92A.88.88,0,0,0,25,5.23,1.17,1.17,0,0,0,24.18,5a1.3,1.3,0,0,0-.77.21.89.89,0,0,0-.37.57H21.46a1.92,1.92,0,0,1,.8-1.5,3.17,3.17,0,0,1,2-.58,3.1,3.1,0,0,1,1.95.58A1.85,1.85,0,0,1,27,5.82v4.36H25.28v-1h0a1.83,1.83,0,0,1-.79.79A2.42,2.42,0,0,1,23.3,10.29ZM23.87,9a1.5,1.5,0,0,0,1-.34,1.06,1.06,0,0,0,.4-.84V7.39l-1.34.09a1.31,1.31,0,0,0-.75.24.65.65,0,0,0-.26.54.68.68,0,0,0,.26.57A1.2,1.2,0,0,0,23.87,9Zm-9.51,1.14V1.63h1.71V5h0A2,2,0,0,1,16.87,4a2.3,2.3,0,0,1,1.23-.32,2.08,2.08,0,0,1,1.63.64,2.46,2.46,0,0,1,.58,1.74v4.09H18.58V6.46a1.44,1.44,0,0,0-.3-1,1.13,1.13,0,0,0-.89-.34,1.23,1.23,0,0,0-.95.38,1.49,1.49,0,0,0-.35,1v3.62Z"/><path class="cls-2" d="M44.62,9.05v.23h.19a.17.17,0,0,0,.1,0,.12.12,0,0,0,0-.09c0-.07,0-.11-.13-.11Zm0,.66h-.17v-.8h.39A.27.27,0,0,1,45,9a.2.2,0,0,1,.08.17.21.21,0,0,1,0,.16.22.22,0,0,1-.14.08l.23.32H45l-.19-.3h-.14Zm.15.27a.64.64,0,0,0,.47-.19.66.66,0,0,0,0-.93.68.68,0,0,0-.94,0,.66.66,0,0,0,0,.93A.64.64,0,0,0,44.77,10Zm0,.18a.89.89,0,0,1-.43-.11.81.81,0,0,1-.31-.3.78.78,0,0,1-.11-.42.79.79,0,0,1,.25-.6.81.81,0,0,1,.6-.24.85.85,0,0,1,.61.24.86.86,0,0,1,0,1.19A.85.85,0,0,1,44.77,10.16Z"/><path class="cls-2" d="M7.35,0a6,6,0,0,1,4,3.13,11.6,11.6,0,0,0-2.24-.68,7.05,7.05,0,0,0-.45-1A4.23,4.23,0,0,0,7.35,0M8.43,2.33a15.83,15.83,0,0,0-2.12-.17V.23A2.89,2.89,0,0,1,8.16,1.79Q8.3,2,8.43,2.33ZM5.71,2.16a15.83,15.83,0,0,0-2.12.17l.27-.54A2.89,2.89,0,0,1,5.71.23Zm-2.82.29a11.6,11.6,0,0,0-2.24.68A6,6,0,0,1,4.67,0,4.23,4.23,0,0,0,3.34,1.49,7.05,7.05,0,0,0,2.89,2.45ZM11.72,4A6,6,0,0,1,12,5.56H9.72a9.82,9.82,0,0,0-.37-2.44,9.75,9.75,0,0,1,1.89.62C11.41,3.81,11.57,3.89,11.72,4Zm.3,2.2a5.9,5.9,0,0,1-.3,1.59,3.58,3.58,0,0,1-.48.24,9.75,9.75,0,0,1-1.89.62,9.9,9.9,0,0,0,.37-2.45ZM8.68,8.75A14.68,14.68,0,0,1,6.31,9V6.17h2.8A9.28,9.28,0,0,1,8.68,8.75ZM5.71,9a14.79,14.79,0,0,1-2.37-.22,9.28,9.28,0,0,1-.43-2.58h2.8ZM2.91,5.56A9.27,9.27,0,0,1,3.34,3a14.79,14.79,0,0,1,2.37-.22V5.56Zm3.4-2.79A14.68,14.68,0,0,1,8.68,3a9.27,9.27,0,0,1,.43,2.57H6.31ZM2.67,8.62A9.75,9.75,0,0,1,.78,8,3.58,3.58,0,0,1,.3,7.76,5.9,5.9,0,0,1,0,6.17H2.3A9.9,9.9,0,0,0,2.67,8.62ZM0,5.56A6,6,0,0,1,.3,4c.15-.08.31-.16.48-.23a9.75,9.75,0,0,1,1.89-.62A9.82,9.82,0,0,0,2.3,5.56ZM11.37,8.61a6.05,6.05,0,0,1-4,3.13,4.19,4.19,0,0,0,1.33-1.5,6.41,6.41,0,0,0,.45-1A11.6,11.6,0,0,0,11.37,8.61Zm-6.7,3.13a6.05,6.05,0,0,1-4-3.13,11.6,11.6,0,0,0,2.24.68,6.41,6.41,0,0,0,.45,1A4.19,4.19,0,0,0,4.67,11.74ZM3.59,9.41a15.83,15.83,0,0,0,2.12.17v1.93A2.91,2.91,0,0,1,3.86,9.94C3.77,9.78,3.68,9.6,3.59,9.41Zm2.72.17a15.83,15.83,0,0,0,2.12-.17c-.09.19-.18.37-.27.53a2.91,2.91,0,0,1-1.85,1.57Z"/><path class="cls-1" d="M23.55,11.65v.91H24a.51.51,0,0,0,.36-.12.46.46,0,0,0,.13-.34.45.45,0,0,0-.13-.33.49.49,0,0,0-.36-.12Zm-.35-.3h.86a.72.72,0,0,1,.75.75.72.72,0,0,1-.22.55.74.74,0,0,1-.55.21h-.49v.78H23.2Zm-1.91,0V12.8a.58.58,0,0,0,.15.41.57.57,0,0,0,.42.15.56.56,0,0,0,.41-.15.54.54,0,0,0,.16-.41V11.35h.35v1.48a.78.78,0,0,1-.25.61,1.11,1.11,0,0,1-1.35,0,.78.78,0,0,1-.25-.61V11.35Zm-1.77.28a.6.6,0,0,0-.51.23,1,1,0,0,0-.19.63,1,1,0,0,0,.19.64.63.63,0,0,0,.51.23.65.65,0,0,0,.52-.23,1,1,0,0,0,.19-.64,1,1,0,0,0-.19-.63A.62.62,0,0,0,19.52,11.63Zm0-.32a1,1,0,0,1,.79.32,1.24,1.24,0,0,1,.28.86,1.26,1.26,0,0,1-.28.87,1,1,0,0,1-.79.31,1,1,0,0,1-.78-.31,1.27,1.27,0,0,1-.29-.87,1.24,1.24,0,0,1,.29-.86A1,1,0,0,1,19.52,11.31ZM16.9,12.76v.88h-.35V11.35h.88a.78.78,0,0,1,.56.19.66.66,0,0,1,.2.51.72.72,0,0,1-.11.41.68.68,0,0,1-.33.24l.51.94h-.41l-.46-.88Zm0-1.11v.82h.5a.46.46,0,0,0,.32-.11.41.41,0,0,0,.11-.3.38.38,0,0,0-.12-.3.46.46,0,0,0-.32-.11Zm-.7,1a1,1,0,0,1-.26.72.94.94,0,0,1-.72.26,1,1,0,0,1-.78-.32,1.25,1.25,0,0,1-.29-.87,1.22,1.22,0,0,1,.29-.85,1,1,0,0,1,.77-.32,1,1,0,0,1,.65.21.89.89,0,0,1,.32.55h-.36a.6.6,0,0,0-.61-.45.63.63,0,0,0-.51.23,1,1,0,0,0-.19.63,1.07,1.07,0,0,0,.19.65.65.65,0,0,0,.52.23.62.62,0,0,0,.45-.16.54.54,0,0,0,.18-.42v0h-.59v-.29h.94Z"/></g></g></svg>