<svg xmlns="http://www.w3.org/2000/svg" viewBox="0 0 66.1 31.51"><defs><style>.cls-1,.cls-2{fill-rule:evenodd;}.cls-2{fill:red;}</style></defs><g id="Capa_2" data-name="Capa 2"><g id="Capa_1-2" data-name="Capa 1"><rect x="65.53" width="0.56" height="31.51"/><path d="M46.46,13.56l2.54-3h2.31l-2.86,3.21,3,4.28H49.1L47,15l-.53.57v2.48h-2V8h2v5.6Zm-2.92-3-2,7.49H39.39L38,12.75h0l-1.35,5.3H34.5l-2-7.49h2.05l1.13,5.55h0l1.33-5.55h2l1.33,5.55h0l1.14-5.55Zm-16.08,7.6a2.63,2.63,0,0,1-1.8-.63A2.12,2.12,0,0,1,25,15.89a1.9,1.9,0,0,1,.76-1.6,4,4,0,0,1,2.16-.66l1.88-.11V13a1,1,0,0,0-.34-.81,1.36,1.36,0,0,0-.91-.29,1.54,1.54,0,0,0-.92.25,1.08,1.08,0,0,0-.43.68H25.29a2.29,2.29,0,0,1,.94-1.78,3.8,3.8,0,0,1,2.36-.67,3.6,3.6,0,0,1,2.3.68,2.2,2.2,0,0,1,.87,1.82v5.15h-2V16.9h-.05a2.2,2.2,0,0,1-.93.93A2.87,2.87,0,0,1,27.46,18.16Zm.67-1.47a1.71,1.71,0,0,0,1.15-.4,1.24,1.24,0,0,0,.47-1v-.55l-1.58.1a1.64,1.64,0,0,0-.88.29.77.77,0,0,0-.31.64.81.81,0,0,0,.31.67A1.35,1.35,0,0,0,28.13,16.69Zm-11.2,1.36V8h2v3.93h0a2.28,2.28,0,0,1,.91-1.09,2.59,2.59,0,0,1,1.45-.38,2.48,2.48,0,0,1,1.92.75,2.91,2.91,0,0,1,.69,2.05v4.83h-2V13.66a1.66,1.66,0,0,0-.36-1.14,1.29,1.29,0,0,0-1-.41,1.43,1.43,0,0,0-1.13.46,1.73,1.73,0,0,0-.41,1.2v4.28Z"/><path class="cls-1" d="M52.57,16.71V17h.23a.12.12,0,0,0,.11,0,.12.12,0,0,0,.05-.1c0-.09-.05-.13-.15-.13Zm0,.77h-.19v-.94h.46a.38.38,0,0,1,.24.08.29.29,0,0,1,.09.21.31.31,0,0,1-.06.19.24.24,0,0,1-.16.09l.27.37H53l-.23-.35h-.17Zm.19.33a.79.79,0,0,0,.77-.78.76.76,0,0,0-.23-.55.79.79,0,0,0-1.09,0A.76.76,0,0,0,52,17a.79.79,0,0,0,.78.78Zm0,.21a1.07,1.07,0,0,1-.51-.13,1,1,0,0,1-.37-.36,1,1,0,0,1,.16-1.2,1.05,1.05,0,0,1,1.43,0,1,1,0,0,1,.29.7,1,1,0,0,1-.29.7A1,1,0,0,1,52.76,18Z"/><path class="cls-2" d="M8.66,6A7.13,7.13,0,0,1,13.4,9.73a13.7,13.7,0,0,0-2.64-.8,7.82,7.82,0,0,0-.53-1.13A5,5,0,0,0,8.66,6M9.93,8.79a17.94,17.94,0,0,0-2.49-.2V6.31A3.41,3.41,0,0,1,9.61,8.16,6.19,6.19,0,0,1,9.93,8.79Zm-3.21-.2a18.06,18.06,0,0,0-2.49.2c.1-.22.21-.43.32-.63A3.41,3.41,0,0,1,6.72,6.31ZM3.4,8.93a13.38,13.38,0,0,0-2.63.8A7.11,7.11,0,0,1,5.51,6,5,5,0,0,0,3.93,7.8,9,9,0,0,0,3.4,8.93Zm10.41,1.8a7.21,7.21,0,0,1,.36,1.87H11.45A11.82,11.82,0,0,0,11,9.72a11.44,11.44,0,0,1,2.23.73A5.84,5.84,0,0,1,13.81,10.73Zm.36,2.59a7.64,7.64,0,0,1-.35,1.87c-.18.1-.37.19-.57.28A12.16,12.16,0,0,1,11,16.2a11.82,11.82,0,0,0,.43-2.88Zm-3.94,3a17.54,17.54,0,0,1-2.79.25V13.32h3.3A11.36,11.36,0,0,1,10.23,16.36Zm-3.51.25a17.41,17.41,0,0,1-2.78-.25,10.62,10.62,0,0,1-.51-3H6.72Zm-3.29-4a10.62,10.62,0,0,1,.51-3A18.62,18.62,0,0,1,6.72,9.3v3.3Zm4-3.3a18.76,18.76,0,0,1,2.79.26,11.36,11.36,0,0,1,.51,3H7.44Zm-4.3,6.9a11.8,11.8,0,0,1-2.22-.73c-.2-.09-.39-.18-.57-.28A6.81,6.81,0,0,1,0,13.32H2.71A11.82,11.82,0,0,0,3.14,16.2ZM0,12.6a6.81,6.81,0,0,1,.35-1.87c.18-.1.37-.19.57-.28a11.12,11.12,0,0,1,2.22-.73,11.82,11.82,0,0,0-.43,2.88Zm13.4,3.59a7.09,7.09,0,0,1-4.74,3.68,4.9,4.9,0,0,0,1.57-1.75A7.82,7.82,0,0,0,10.76,17,13.7,13.7,0,0,0,13.4,16.19ZM5.51,19.87A7.07,7.07,0,0,1,.77,16.19,12.75,12.75,0,0,0,3.4,17a8.56,8.56,0,0,0,.53,1.14A4.92,4.92,0,0,0,5.51,19.87ZM4.23,17.13a18.06,18.06,0,0,0,2.49.2v2.28a3.41,3.41,0,0,1-2.17-1.85C4.44,17.56,4.33,17.35,4.23,17.13Zm3.21.2a17.94,17.94,0,0,0,2.49-.2,6.19,6.19,0,0,1-.32.63,3.41,3.41,0,0,1-2.17,1.85Z"/><path d="M27.76,19.77v1.07h.48a.61.61,0,0,0,.42-.14.5.5,0,0,0,.15-.39.54.54,0,0,0-.15-.4.61.61,0,0,0-.42-.14Zm-.42-.35h1a.84.84,0,0,1,.88.88.83.83,0,0,1-.25.64.87.87,0,0,1-.65.25h-.57v.92h-.42Zm-2.26,0v1.71a.63.63,0,0,0,.18.47.66.66,0,0,0,.49.18.68.68,0,0,0,.5-.18.63.63,0,0,0,.18-.47V19.42h.41v1.75a.94.94,0,0,1-.29.71,1.27,1.27,0,0,1-1.59,0,.91.91,0,0,1-.3-.71V19.42ZM23,19.74a.73.73,0,0,0-.61.28,1.32,1.32,0,0,0,0,1.49.79.79,0,0,0,1.21,0,1.32,1.32,0,0,0,0-1.49A.72.72,0,0,0,23,19.74Zm0-.36a1.19,1.19,0,0,1,.92.37,1.69,1.69,0,0,1,0,2,1.32,1.32,0,0,1-1.85,0,1.73,1.73,0,0,1,0-2A1.2,1.2,0,0,1,23,19.38Zm-3.09,1.7v1H19.5V19.42h1a.92.92,0,0,1,.66.22.78.78,0,0,1,.24.6.83.83,0,0,1-.14.48.69.69,0,0,1-.38.29l.6,1.1H21l-.55-1Zm0-1.31v1h.58a.52.52,0,0,0,.38-.13.49.49,0,0,0,.13-.36.47.47,0,0,0-.14-.35.52.52,0,0,0-.38-.13ZM19.09,21a1.07,1.07,0,0,1-1.16,1.17,1.2,1.2,0,0,1-.92-.38,1.52,1.52,0,0,1-.33-1,1.44,1.44,0,0,1,.33-1,1.18,1.18,0,0,1,.92-.37,1.23,1.23,0,0,1,.76.24,1,1,0,0,1,.38.65h-.43a.73.73,0,0,0-.26-.39.77.77,0,0,0-.45-.14.75.75,0,0,0-.61.27,1.36,1.36,0,0,0,0,1.5.72.72,0,0,0,.6.28.76.76,0,0,0,.54-.19.64.64,0,0,0,.21-.5v0H18v-.34h1.11Z"/></g></g></svg>