<svg width="100" height="37" viewBox="0 0 100 37" fill="none" xmlns="http://www.w3.org/2000/svg">
<path d="M27.6976 24.6854L26.0763 12.5811C25.9412 11.3774 25.9412 10.508 26.3465 9.97303C26.6843 9.57178 27.2923 9.30428 28.238 9.23741H28.3731V7.76617H21.6176L21.6852 7.9668C22.023 9.43803 21.7527 10.9093 20.807 13.1161C19.7261 15.6573 17.9021 19.3354 15.4701 24.0835C14.8621 22.2779 13.8488 20.3386 12.8355 18.3323C11.079 14.788 9.1875 11.1768 8.98483 7.89992V7.76617H2.43198V9.23741H2.56709C3.44531 9.30428 3.98575 9.57178 4.39108 9.97303C4.86397 10.5749 4.99908 11.578 4.72886 13.183L2.97242 24.6854C2.63465 26.8922 1.89154 27.6947 0.202665 27.6947H0V29.2328H7.63373V27.7616H7.49862C6.41774 27.6947 5.67463 27.4272 5.2693 26.8922C4.72886 26.2235 4.59375 25.1535 4.86397 23.4816L6.41774 12.8486C7.29595 15.3898 8.71461 18.1986 10.0657 20.8735C11.687 24.0835 13.1732 27.0929 13.5786 29.0991V29.2328H15.335V29.0991C15.8079 27.026 17.0239 24.5516 18.5101 21.7429C19.8612 19.2017 21.2799 16.3261 22.3607 13.3167L23.7118 24.6185C23.847 25.6885 23.6443 26.4241 23.1714 26.9591C22.7661 27.4272 22.023 27.6947 21.1448 27.6947H21.2123V29.2328H31.0078V27.7616H30.8727C28.5758 27.3604 27.9678 26.3572 27.6976 24.6854Z" fill="#E35205"/>
<path fill-rule="evenodd" clip-rule="evenodd" d="M39.5008 27.1809C40.8862 27.1809 42.0738 26.6995 43.1953 25.6682L43.3273 25.4619L44.1849 26.287L44.119 26.4245C42.7995 28.6936 40.6883 30 38.3133 30C34.4868 30 31.7818 26.8371 31.7818 22.5052C31.7818 18.0359 34.5527 14.6667 38.3133 14.6667C42.2717 14.6667 44.119 18.3109 44.119 20.7175V20.855H34.3548C34.3548 22.7803 34.8826 24.4305 35.9382 25.5994C36.8618 26.6308 38.1153 27.1809 39.5008 27.1809ZM40.5552 19.3419C40.2913 17.2791 39.3017 16.179 37.7183 16.179C36.0689 16.179 34.8814 17.4167 34.5515 19.3419H40.5552Z" fill="#E35205"/>
<path fill-rule="evenodd" clip-rule="evenodd" d="M61.2785 25.4944C61.2785 26.763 61.884 26.8965 62.3548 26.8965C62.6239 26.8965 62.893 26.8297 63.2966 26.6962H63.5657V28.2986L59.3277 29.2333H58.386V27.0968C56.8388 28.4989 55.0225 29.2333 53.3408 29.2333C49.9101 29.2333 47.2866 26.2288 47.2866 22.4231C47.2866 18.0165 50.7846 14.2776 55.0225 14.2776C55.9643 14.2776 56.9733 14.4111 58.3187 14.8117V10.4719L56.0316 9.2033V8.26857L60.3368 7H61.2785V25.4944ZM58.3187 20.7536C58.3187 16.8811 55.8297 15.8796 54.3498 15.8796C52.0626 15.8796 50.1791 18.0829 50.2464 20.7536C50.2464 23.0904 51.4572 26.7626 54.8207 26.7626C56.2333 26.7626 57.4442 26.1617 58.3187 25.0934V20.7536Z" fill="#E35205"/>
<path d="M70.19 10.8333C71.2471 10.8333 72.0928 9.99697 72.0928 8.95152C72.0928 7.90606 71.2471 7 70.19 7C69.133 7 68.2168 7.83636 68.2168 8.95152C68.2168 9.99697 69.0625 10.8333 70.19 10.8333Z" fill="#E35205"/>
<path d="M70.9979 25.4914V14.6667H70.0935L65.8946 16.2035V17.139L68.1555 18.3417V25.6919C68.1555 27.2287 67.122 27.7633 66.153 27.7633H66.0238V29.2333H72.8713V27.8301H72.7421C71.5793 27.7633 70.9979 26.9615 70.9979 25.4914Z" fill="#E35205"/>
<path d="M88.372 9.5004C88.372 8.08126 86.8216 7 84.7319 7C81.0245 7 78.5978 9.50041 78.5304 13.5551C78.5304 14.6364 78.3282 14.7715 76.98 14.7715H75.9689V16.5961H78.5304V25.4489C78.5304 27.0708 77.8563 27.7466 76.1711 27.7466H75.9689V29.2333H84.7319V27.7466H84.5971C81.9682 27.7466 81.4963 27.1384 81.4963 25.1786V16.5961H85.2038V14.7715H81.4963V11.3926C81.4963 9.23009 82.7097 8.68946 83.4512 8.68946C84.1253 8.68946 84.5971 9.23009 85.0016 9.77072C85.4734 10.3789 85.9453 10.9871 86.7542 10.9871C87.6979 10.9871 88.372 10.3789 88.372 9.5004Z" fill="#E35205"/>
<path fill-rule="evenodd" clip-rule="evenodd" d="M99.0091 25.6682L99.141 25.5994L99.9987 26.287L99.9327 26.4245C98.6132 28.6936 96.502 30 94.127 30C90.3005 30 87.5956 26.8371 87.5956 22.5052C87.5956 18.0359 90.3665 14.6667 94.127 14.6667C98.0854 14.6667 99.9327 18.3109 99.9327 20.7175V20.855H90.1685C90.1685 22.7803 90.6963 24.4305 91.7519 25.5994C92.6756 26.6308 93.9291 27.1809 95.3145 27.1809C96.7 27.1809 97.8875 26.6995 99.0091 25.6682ZM96.435 19.3419C96.1711 17.2792 95.1814 16.179 93.5981 16.179C91.9487 16.179 90.7612 17.4167 90.4313 19.3419H96.435Z" fill="#E35205"/>
<path d="M100 7H95.6002L92.248 12.3667H93.6448L100 7Z" fill="#E35205"/>
</svg>
