<svg 
        width='284' 
        height='154'
        viewBox="0 0 120 80" 
        fill="none" 
        xmlns="http://www.w3.org/2000/svg"
        className="flex-shrink-0"
      >
        <defs>
          <linearGradient id="aquaGradient" x1="0%" y1="0%" x2="100%" y2="100%">
            <stop offset="0%" stopColor="#5BC0EB" />
            <stop offset="50%" stopColor="#3AA7D6" />
            <stop offset="100%" stopColor="#2E8BC0" />
          </linearGradient>
          <linearGradient id="splashGradient" x1="0%" y1="100%" x2="0%" y2="0%">
            <stop offset="0%" stopColor="#3AA7D6" />
            <stop offset="100%" stopColor="#7DD3F0" />
          </linearGradient>
        </defs>
        <path 
          d="M4 22 Q8 22, 12 38 Q16 54, 22 54 Q28 54, 32 38 Q36 22, 42 22 Q48 22, 52 38 Q56 54, 62 54 Q66 54, 68 46 Q70 38, 74 34"
          stroke="url(#aquaGradient)"
          strokeWidth="8"
          strokeLinecap="round"
          strokeLinejoin="round"
          fill="none"
        />
        <path 
          d="M68 42 Q76 32, 82 28 Q90 22, 96 26 Q102 30, 100 38 Q98 46, 90 52 Q82 58, 74 56 Q70 54, 68 50"
          fill="url(#aquaGradient)"
        />
        <path d="M72 44 Q80 36, 88 34" stroke="white" strokeWidth="1.5" strokeLinecap="round" opacity="0.7" fill="none" />
        <path d="M94 18 Q98 12, 102 14 Q106 16, 104 22 Q102 28, 96 28 Q90 28, 92 22 Q93 19, 94 18" fill="url(#splashGradient)" />
        <path d="M102 26 Q106 22, 110 24 Q114 26, 112 32 Q110 38, 104 36 Q100 34, 102 28 Z" fill="url(#aquaGradient)" />
        <path d="M108 14 Q111 10, 114 12 Q117 14, 115 18 Q113 22, 109 20 Q106 18, 108 14" fill="url(#splashGradient)" />
        <ellipse cx="112" cy="8" rx="3" ry="4" fill="#5BC0EB" />
        <path d="M96 20 Q98 18, 100 19" stroke="white" strokeWidth="1.2" strokeLinecap="round" opacity="0.8" fill="none" />
        <path d="M106 28 Q108 26, 109 27" stroke="white" strokeWidth="1" strokeLinecap="round" opacity="0.7" fill="none" />
        <circle cx="86" cy="20" r="2" fill="#7DD3F0" />
        <circle cx="116" cy="18" r="1.5" fill="#5BC0EB" />
        <circle cx="90" cy="14" r="1.5" fill="#5BC0EB" opacity="0.8" />
      </svg>